<svg xmlns="http://www.w3.org/2000/svg" data-name="Layer 9" viewBox="0 0 48 48" id="botanical"><path d="m22.7119,36.6503l3.6577-2.8447c.582-.4531,1.3755-.6392,2.1753-.5083.4919.0798.931.2838,1.293.5651l1.4619-.6646c-.628-.7146-1.5091-1.218-2.5147-1.381-1.2095-.1968-2.4263.0962-3.3364.8047l-4.9238,3.8297,2.187.1991Z"></path><path d="m36.4258,34.6631c-.7422-1.4839-2.5059-2.1089-4.0151-1.4209l-8.7852,3.9932-6.2578-.5693c-.4229-.0381-.5254-.3843-.5469-.4897-.021-.105-.0615-.4639.3779-.7031l3.4126-2.291c.9775-.6982,1.3789-1.9331.999-3.0728-.4253-1.2754-1.7422-2.0576-3.1289-1.8013l-10.8262,2.9419h-3.4053v1.5h3.5054c.0664,0,.1328-.0088.1968-.0264l10.8604-2.9541c.5913-.1108,1.1841.2427,1.375.8145.1704.5107-.0098,1.0645-.4302,1.3652l-3.3296,2.2397c-.8442.4507-1.2666,1.3477-1.0767,2.2852s.9282,1.5996,1.8809,1.686l6.4556.5869c.1299.0122.2593-.0107.3784-.0645l8.9658-4.0752c.77-.3491,1.6729-.0317,2.0522.7266.3794.7593.0933,1.6724-.6523,2.0791l-8.9351,4.874-9.7202,1.9438-7.5889-1.957c-.0615-.0161-.1245-.0239-.1875-.0239h-3.75v1.5h3.6548l7.6631,1.9761c.0615.0161.1245.0239.1875.0239.0493,0,.0986-.0049.147-.0146l10-2c.0742-.0146.146-.0405.2124-.0771l9.0352-4.9282c1.458-.7949,2.0181-2.5811,1.2759-4.0669Z"></path><rect width="1.5" height="15" x="2.25" y="30"></rect><path d="m29.5488,17.1338l-.8359.2998c-.8291.2881-1.5449.5371-2.3613,1.1924-.7207.5776-1.2139,1.4028-1.6904,2.2012-.1562.2617-.3101.5195-.4683.7593-.4688.7089-1.1081,2.0333-1.5495,3.1636h1.6205c.3784-.8904.8431-1.8266,1.1804-2.3364.1699-.2578.3359-.5356.5049-.8174.4082-.6841.8311-1.3916,1.3398-1.7998.6162-.4937,1.1611-.6836,1.917-.9463l.8613-.3086c.8545-.3154,2.1475-.7915,2.9326-.7915s2.0781.4761,2.9326.7915l.8613.3086c.7559.2627,1.3008.4526,1.917.9458.5088.4087.9316,1.1162,1.3398,1.8003.1689.2817.335.5596.5049.8174.3371.5093.8019,1.4456,1.1802,2.3364h1.6206c-.4421-1.1308-1.0811-2.4556-1.5489-3.1636-.1592-.2397-.3125-.4976-.4688-.7593-.4766-.7983-.9697-1.6235-1.6904-2.2017-.8164-.6548-1.5322-.9038-2.3613-1.1919l-.8359-.2998c-.7862-.2899-1.7948-.6556-2.7012-.8074v-7.2103l.7988.2805c.6748.2368,1.3701.3545,2.0635.3545.9473,0,1.8916-.2202,2.7695-.6562,1.5898-.7905,2.7734-2.1841,3.332-3.9238.124-.3867-.082-.8022-.4658-.9365l-1.7969-.6309c-1.5967-.5605-3.3135-.4531-4.833.3018-.7129.3545-1.3384.8358-1.8682,1.4095v-3.3148h-1.5v7.3148c-.5298-.5738-1.1553-1.0551-1.8682-1.4095-1.5225-.7563-3.2373-.8623-4.832-.3018l-1.7983.6309c-.3833.1343-.5898.5498-.4658.9365.5581,1.7397,1.7417,3.1328,3.3325,3.9238.8779.436,1.8213.6562,2.7695.6562.6934,0,1.3887-.1177,2.0635-.3545l.7988-.2805v3.2103c-.9064.1519-1.915.5176-2.7012.8074Zm6.7373-11.8853c1.1543-.5742,2.4551-.6548,3.668-.23l1.0625.373c-.4912,1.0332-1.291,1.8569-2.3027,2.3599-1.1533.5728-2.457.6538-3.667.23h-.001l-1.0625-.373c.4912-1.0332,1.291-1.8569,2.3027-2.3599Zm-5.332,6.7329h-.001c-1.21.4263-2.5127.3438-3.668-.23-1.0117-.5029-1.8105-1.3271-2.3022-2.3599l1.064-.373c1.2109-.4248,2.5137-.3438,3.667.23,1.0117.5029,1.8115,1.3267,2.3027,2.3599l-1.0625.373Z"></path><rect width="26" height="1.5" x="20" y="25.25"></rect></svg>